STARTFONT 2.1
FONT -Monotype-Book Antiqua-Regular-I-Normal--10-100-75-75-P-55-iso8859-4
SIZE 10 75 75
FONTBOUNDINGBOX 25 13 -14 -3

STARTPROPERTIES 24
FOUNDRY "Monotype"
FAMILY_NAME "Book Antiqua"
WEIGHT_NAME "Regular"
SLANT "I"
SETWIDTH_NAME "Normal"
ADD_STYLE_NAME ""
PIXEL_SIZE 10
POINT_SIZE 100
RESOLUTION_X 75
RESOLUTION_Y 75
SPACING "P"
AVERAGE_WIDTH 55
CHARSET_REGISTRY "iso8859"
CHARSET_ENCODING "4"
FACE_NAME "Book Antiqua it ISO Latin4"
_DEC_DEVICE_FONTNAMES "PS=bookantiqua-italic-lat4"
COPYRIGHT "Copyright (c) 1994 Monotype Typography Ltd."
CAP_HEIGHT 8
X_HEIGHT 6
WEIGHT 10
QUAD_WIDTH 6
DEFAULT_CHAR 160
FONT_DESCENT 3
FONT_ASCENT 10
ENDPROPERTIES

CHARS 191

STARTCHAR space
ENCODING 32
SWIDTH 250 0
DWIDTH 3 0
BBX 0 0 0 0
BITMAP
ENDCHAR

STARTCHAR exclam
ENCODING 33
SWIDTH 333 0
DWIDTH 3 0
BBX 2 7 1 0
BITMAP
40
40
40
80
80
00
80
ENDCHAR

STARTCHAR quotedbl
ENCODING 34
SWIDTH 500 0
DWIDTH 5 0
BBX 3 3 1 4
BITMAP
A0
A0
A0
ENDCHAR

STARTCHAR numbersign
ENCODING 35
SWIDTH 606 0
DWIDTH 6 0
BBX 6 7 0 0
BITMAP
28
28
7C
28
FC
50
50
ENDCHAR

STARTCHAR dollar
ENCODING 36
SWIDTH 500 0
DWIDTH 5 0
BBX 5 9 0 -1
BITMAP
10
38
48
40
30
08
88
F0
20
ENDCHAR

STARTCHAR percent
ENCODING 37
SWIDTH 889 0
DWIDTH 9 0
BBX 9 7 0 0
BITMAP
6200
A400
A400
C980
1280
1280
2300
ENDCHAR

STARTCHAR ampersand
ENCODING 38
SWIDTH 778 0
DWIDTH 8 0
BBX 8 7 1 0
BITMAP
38
48
61
4E
94
84
78
ENDCHAR

STARTCHAR quoteright
ENCODING 39
SWIDTH 278 0
DWIDTH 3 0
BBX 2 3 1 4
BITMAP
40
40
80
ENDCHAR

STARTCHAR parenleft
ENCODING 40
SWIDTH 333 0
DWIDTH 3 0
BBX 4 9 0 -2
BITMAP
10
20
40
40
80
40
80
40
20
ENDCHAR

STARTCHAR parenright
ENCODING 41
SWIDTH 333 0
DWIDTH 3 0
BBX 4 9 -1 -2
BITMAP
40
20
10
20
10
20
20
40
80
ENDCHAR

STARTCHAR asterisk
ENCODING 42
SWIDTH 389 0
DWIDTH 4 0
BBX 5 5 0 2
BITMAP
20
A8
70
A8
20
ENDCHAR

STARTCHAR plus
ENCODING 43
SWIDTH 606 0
DWIDTH 6 0
BBX 5 5 1 1
BITMAP
20
20
F8
20
20
ENDCHAR

STARTCHAR comma
ENCODING 44
SWIDTH 250 0
DWIDTH 3 0
BBX 2 3 0 -2
BITMAP
40
40
80
ENDCHAR

STARTCHAR minus
ENCODING 45
SWIDTH 606 0
DWIDTH 6 0
BBX 5 1 1 3
BITMAP
F8
ENDCHAR

STARTCHAR period
ENCODING 46
SWIDTH 250 0
DWIDTH 3 0
BBX 2 1 1 0
BITMAP
C0
ENDCHAR

STARTCHAR slash
ENCODING 47
SWIDTH 296 0
DWIDTH 3 0
BBX 6 9 -1 -2
BITMAP
04
08
08
10
20
20
40
80
80
ENDCHAR

STARTCHAR zero
ENCODING 48
SWIDTH 500 0
DWIDTH 5 0
BBX 4 7 1 0
BITMAP
20
50
90
90
90
A0
40
ENDCHAR

STARTCHAR one
ENCODING 49
SWIDTH 500 0
DWIDTH 5 0
BBX 5 7 0 0
BITMAP
08
78
10
10
20
20
F0
ENDCHAR

STARTCHAR two
ENCODING 50
SWIDTH 500 0
DWIDTH 5 0
BBX 5 7 0 0
BITMAP
30
48
08
10
20
40
F0
ENDCHAR

STARTCHAR three
ENCODING 51
SWIDTH 500 0
DWIDTH 5 0
BBX 5 7 0 0
BITMAP
30
48
08
30
10
90
60
ENDCHAR

STARTCHAR four
ENCODING 52
SWIDTH 500 0
DWIDTH 5 0
BBX 6 7 0 0
BITMAP
08
18
28
50
FC
10
38
ENDCHAR

STARTCHAR five
ENCODING 53
SWIDTH 500 0
DWIDTH 5 0
BBX 6 7 0 0
BITMAP
3C
20
70
08
08
90
60
ENDCHAR

STARTCHAR six
ENCODING 54
SWIDTH 500 0
DWIDTH 5 0
BBX 4 7 1 0
BITMAP
30
40
40
E0
90
90
60
ENDCHAR

STARTCHAR seven
ENCODING 55
SWIDTH 500 0
DWIDTH 5 0
BBX 4 7 1 0
BITMAP
F0
20
20
40
40
80
80
ENDCHAR

STARTCHAR eight
ENCODING 56
SWIDTH 500 0
DWIDTH 5 0
BBX 5 7 1 0
BITMAP
30
48
48
70
90
90
60
ENDCHAR

STARTCHAR nine
ENCODING 57
SWIDTH 500 0
DWIDTH 5 0
BBX 4 7 1 0
BITMAP
60
90
90
70
20
20
C0
ENDCHAR

STARTCHAR colon
ENCODING 58
SWIDTH 250 0
DWIDTH 3 0
BBX 3 5 0 0
BITMAP
60
00
00
00
C0
ENDCHAR

STARTCHAR semicolon
ENCODING 59
SWIDTH 250 0
DWIDTH 3 0
BBX 3 7 0 -2
BITMAP
60
00
00
00
40
40
80
ENDCHAR

STARTCHAR less
ENCODING 60
SWIDTH 606 0
DWIDTH 6 0
BBX 5 5 1 1
BITMAP
08
30
C0
30
08
ENDCHAR

STARTCHAR equal
ENCODING 61
SWIDTH 606 0
DWIDTH 6 0
BBX 5 3 1 2
BITMAP
F8
00
F8
ENDCHAR

STARTCHAR greater
ENCODING 62
SWIDTH 606 0
DWIDTH 6 0
BBX 5 5 1 1
BITMAP
80
60
18
60
80
ENDCHAR

STARTCHAR question
ENCODING 63
SWIDTH 500 0
DWIDTH 4 0
BBX 4 7 0 0
BITMAP
60
90
20
40
80
00
80
ENDCHAR

STARTCHAR at
ENCODING 64
SWIDTH 747 0
DWIDTH 8 0
BBX 8 8 0 -1
BITMAP
3E
41
95
A9
AA
B5
42
3C
ENDCHAR

STARTCHAR A
ENCODING 65
SWIDTH 722 0
DWIDTH 7 0
BBX 21 7 -14 0
BITMAP
000010
800030
000050
000090
0001F0
000210
000738
ENDCHAR

STARTCHAR B
ENCODING 66
SWIDTH 611 0
DWIDTH 7 0
BBX 7 7 0 0
BITMAP
7C
22
22
7C
44
44
F8
ENDCHAR

STARTCHAR C
ENCODING 67
SWIDTH 667 0
DWIDTH 7 0
BBX 6 7 1 0
BITMAP
3C
44
80
80
80
88
70
ENDCHAR

STARTCHAR D
ENCODING 68
SWIDTH 778 0
DWIDTH 8 0
BBX 7 7 0 0
BITMAP
7C
22
22
42
42
44
F8
ENDCHAR

STARTCHAR E
ENCODING 69
SWIDTH 611 0
DWIDTH 6 0
BBX 6 7 0 0
BITMAP
7C
24
20
78
40
48
F8
ENDCHAR

STARTCHAR F
ENCODING 70
SWIDTH 556 0
DWIDTH 6 0
BBX 6 7 0 0
BITMAP
7C
24
20
78
40
40
E0
ENDCHAR

STARTCHAR G
ENCODING 71
SWIDTH 722 0
DWIDTH 8 0
BBX 7 7 1 0
BITMAP
3E
42
80
80
8E
84
78
ENDCHAR

STARTCHAR H
ENCODING 72
SWIDTH 778 0
DWIDTH 8 0
BBX 8 7 0 0
BITMAP
77
22
22
7E
44
44
EE
ENDCHAR

STARTCHAR I
ENCODING 73
SWIDTH 333 0
DWIDTH 4 0
BBX 4 7 0 0
BITMAP
70
20
20
60
40
40
E0
ENDCHAR

STARTCHAR J
ENCODING 74
SWIDTH 333 0
DWIDTH 4 0
BBX 6 9 -2 -2
BITMAP
1C
08
08
08
18
10
10
20
C0
ENDCHAR

STARTCHAR K
ENCODING 75
SWIDTH 667 0
DWIDTH 7 0
BBX 8 7 0 0
BITMAP
77
24
28
70
48
44
E6
ENDCHAR

STARTCHAR L
ENCODING 76
SWIDTH 556 0
DWIDTH 6 0
BBX 6 7 0 0
BITMAP
70
20
20
60
40
44
FC
ENDCHAR

STARTCHAR M
ENCODING 77
SWIDTH 944 0
DWIDTH 9 0
BBX 9 7 0 0
BITMAP
6380
2300
2500
5500
5A00
5200
D700
ENDCHAR

STARTCHAR N
ENCODING 78
SWIDTH 778 0
DWIDTH 8 0
BBX 8 7 0 0
BITMAP
67
22
32
52
4C
44
E4
ENDCHAR

STARTCHAR O
ENCODING 79
SWIDTH 778 0
DWIDTH 8 0
BBX 7 7 1 0
BITMAP
3C
42
82
82
82
84
78
ENDCHAR

STARTCHAR P
ENCODING 80
SWIDTH 611 0
DWIDTH 7 0
BBX 7 7 0 0
BITMAP
7C
22
22
6C
40
40
E0
ENDCHAR

STARTCHAR Q
ENCODING 81
SWIDTH 778 0
DWIDTH 8 0
BBX 7 9 1 -2
BITMAP
3C
42
82
82
82
84
78
32
4C
ENDCHAR

STARTCHAR R
ENCODING 82
SWIDTH 667 0
DWIDTH 7 0
BBX 7 7 0 0
BITMAP
7C
22
22
7C
48
44
E6
ENDCHAR

STARTCHAR S
ENCODING 83
SWIDTH 556 0
DWIDTH 6 0
BBX 6 7 0 0
BITMAP
3C
44
40
30
08
88
F0
ENDCHAR

STARTCHAR T
ENCODING 84
SWIDTH 611 0
DWIDTH 6 0
BBX 7 7 0 0
BITMAP
FE
92
10
30
20
20
70
ENDCHAR

STARTCHAR U
ENCODING 85
SWIDTH 778 0
DWIDTH 8 0
BBX 7 7 1 0
BITMAP
CE
44
44
CC
88
98
6C
ENDCHAR

STARTCHAR V
ENCODING 86
SWIDTH 722 0
DWIDTH 7 0
BBX 7 7 1 0
BITMAP
EE
44
48
50
50
60
40
ENDCHAR

STARTCHAR W
ENCODING 87
SWIDTH 944 0
DWIDTH 10 0
BBX 10 7 1 0
BITMAP
E5C0
4C80
4D00
5500
6600
6600
4400
ENDCHAR

STARTCHAR X
ENCODING 88
SWIDTH 722 0
DWIDTH 7 0
BBX 8 7 0 0
BITMAP
77
24
18
18
28
44
EE
ENDCHAR

STARTCHAR Y
ENCODING 89
SWIDTH 667 0
DWIDTH 6 0
BBX 6 7 1 0
BITMAP
CC
48
50
60
40
40
E0
ENDCHAR

STARTCHAR Z
ENCODING 90
SWIDTH 667 0
DWIDTH 7 0
BBX 7 7 0 0
BITMAP
7E
44
08
10
20
44
FC
ENDCHAR

STARTCHAR bracketleft
ENCODING 91
SWIDTH 333 0
DWIDTH 3 0
BBX 5 9 0 -2
BITMAP
38
20
20
40
40
40
80
80
E0
ENDCHAR

STARTCHAR backslash
ENCODING 92
SWIDTH 606 0
DWIDTH 6 0
BBX 6 9 0 -2
BITMAP
80
40
40
20
10
10
08
04
04
ENDCHAR

STARTCHAR bracketright
ENCODING 93
SWIDTH 333 0
DWIDTH 3 0
BBX 5 9 -2 -2
BITMAP
38
08
08
10
10
10
20
20
E0
ENDCHAR

STARTCHAR asciicircum
ENCODING 94
SWIDTH 606 0
DWIDTH 6 0
BBX 5 4 1 3
BITMAP
20
60
50
D8
ENDCHAR

STARTCHAR underscore
ENCODING 95
SWIDTH 500 0
DWIDTH 5 0
BBX 5 1 0 -2
BITMAP
F8
ENDCHAR

STARTCHAR quoteleft
ENCODING 96
SWIDTH 278 0
DWIDTH 3 0
BBX 2 3 1 4
BITMAP
40
80
80
ENDCHAR

STARTCHAR a
ENCODING 97
SWIDTH 444 0
DWIDTH 6 0
BBX 6 5 1 0
BITMAP
34
48
90
B0
58
ENDCHAR

STARTCHAR b
ENCODING 98
SWIDTH 463 0
DWIDTH 5 0
BBX 5 7 0 0
BITMAP
60
20
70
48
88
90
60
ENDCHAR

STARTCHAR c
ENCODING 99
SWIDTH 407 0
DWIDTH 5 0
BBX 5 5 1 0
BITMAP
38
48
80
90
60
ENDCHAR

STARTCHAR d
ENCODING 100
SWIDTH 500 0
DWIDTH 5 0
BBX 5 7 1 0
BITMAP
18
08
68
90
90
A0
70
ENDCHAR

STARTCHAR e
ENCODING 101
SWIDTH 389 0
DWIDTH 4 0
BBX 5 5 0 0
BITMAP
38
48
F0
80
70
ENDCHAR

STARTCHAR f
ENCODING 102
SWIDTH 278 0
DWIDTH 3 0
BBX 7 9 -2 -2
BITMAP
06
08
3C
10
10
10
20
20
C0
ENDCHAR

STARTCHAR g
ENCODING 103
SWIDTH 499 0
DWIDTH 4 0
BBX 5 7 0 -2
BITMAP
68
90
90
60
60
90
E0
ENDCHAR

STARTCHAR h
ENCODING 104
SWIDTH 500 0
DWIDTH 5 0
BBX 5 7 0 0
BITMAP
60
20
30
48
48
90
98
ENDCHAR

STARTCHAR i
ENCODING 105
SWIDTH 278 0
DWIDTH 3 0
BBX 3 7 1 0
BITMAP
60
00
C0
40
80
80
C0
ENDCHAR

STARTCHAR j
ENCODING 106
SWIDTH 278 0
DWIDTH 3 0
BBX 5 9 -1 -2
BITMAP
18
00
30
10
10
20
20
20
C0
ENDCHAR

STARTCHAR k
ENCODING 107
SWIDTH 444 0
DWIDTH 5 0
BBX 6 7 0 0
BITMAP
60
20
4C
50
60
90
98
ENDCHAR

STARTCHAR l
ENCODING 108
SWIDTH 278 0
DWIDTH 3 0
BBX 3 7 1 0
BITMAP
60
20
40
40
80
80
C0
ENDCHAR

STARTCHAR m
ENCODING 109
SWIDTH 778 0
DWIDTH 8 0
BBX 8 5 0 0
BITMAP
DB
6D
49
92
93
ENDCHAR

STARTCHAR n
ENCODING 110
SWIDTH 556 0
DWIDTH 6 0
BBX 5 5 1 0
BITMAP
D8
68
48
90
98
ENDCHAR

STARTCHAR o
ENCODING 111
SWIDTH 444 0
DWIDTH 6 0
BBX 5 5 1 0
BITMAP
30
48
88
90
60
ENDCHAR

STARTCHAR p
ENCODING 112
SWIDTH 500 0
DWIDTH 6 0
BBX 6 7 0 -2
BITMAP
6C
34
24
68
50
80
80
ENDCHAR

STARTCHAR q
ENCODING 113
SWIDTH 463 0
DWIDTH 5 0
BBX 5 7 0 -2
BITMAP
28
58
90
B0
60
20
20
ENDCHAR

STARTCHAR r
ENCODING 114
SWIDTH 389 0
DWIDTH 4 0
BBX 5 5 1 0
BITMAP
D8
60
40
80
80
ENDCHAR

STARTCHAR s
ENCODING 115
SWIDTH 389 0
DWIDTH 4 0
BBX 5 5 0 0
BITMAP
38
48
20
90
E0
ENDCHAR

STARTCHAR t
ENCODING 116
SWIDTH 333 0
DWIDTH 4 0
BBX 4 7 1 0
BITMAP
20
20
F0
40
80
80
60
ENDCHAR

STARTCHAR u
ENCODING 117
SWIDTH 556 0
DWIDTH 6 0
BBX 5 5 1 0
BITMAP
C8
48
90
B0
D8
ENDCHAR

STARTCHAR v
ENCODING 118
SWIDTH 500 0
DWIDTH 6 0
BBX 6 5 0 0
BITMAP
6C
A4
44
48
30
ENDCHAR

STARTCHAR w
ENCODING 119
SWIDTH 722 0
DWIDTH 8 0
BBX 8 5 0 0
BITMAP
6B
A9
49
52
2C
ENDCHAR

STARTCHAR x
ENCODING 120
SWIDTH 500 0
DWIDTH 5 0
BBX 5 5 0 0
BITMAP
C8
30
20
60
98
ENDCHAR

STARTCHAR y
ENCODING 121
SWIDTH 500 0
DWIDTH 6 0
BBX 6 7 0 -2
BITMAP
64
24
44
48
38
88
70
ENDCHAR

STARTCHAR z
ENCODING 122
SWIDTH 444 0
DWIDTH 5 0
BBX 20 5 -14 0
BITMAP
8001D0
000220
0000C0
000110
0002E0
ENDCHAR

STARTCHAR braceleft
ENCODING 123
SWIDTH 333 0
DWIDTH 3 0
BBX 4 9 0 -2
BITMAP
10
20
20
40
80
40
40
40
20
ENDCHAR

STARTCHAR bar
ENCODING 124
SWIDTH 606 0
DWIDTH 6 0
BBX 1 9 3 -2
BITMAP
80
80
80
80
80
80
80
80
80
ENDCHAR

STARTCHAR braceright
ENCODING 125
SWIDTH 333 0
DWIDTH 3 0
BBX 4 9 0 -2
BITMAP
40
20
20
20
10
20
40
40
80
ENDCHAR

STARTCHAR asciitilde
ENCODING 126
SWIDTH 606 0
DWIDTH 6 0
BBX 6 2 0 3
BITMAP
64
98
ENDCHAR

STARTCHAR space
ENCODING 160
SWIDTH 250 0
DWIDTH 3 0
BBX 0 0 0 0
BITMAP
ENDCHAR

STARTCHAR Aogonek
ENCODING 161
SWIDTH 722 0
DWIDTH 7 0
BBX 8 9 -1 -2
BITMAP
02
06
0A
12
3E
42
E7
04
03
ENDCHAR

STARTCHAR afii240
ENCODING 162
SWIDTH 444 0
DWIDTH 4 0
BBX 6 5 -1 0
BITMAP
6C
28
70
50
D8
ENDCHAR

STARTCHAR Rcommaaccent
ENCODING 163
SWIDTH 667 0
DWIDTH 7 0
BBX 7 10 0 -3
BITMAP
7C
22
22
7C
48
44
E6
00
10
20
ENDCHAR

STARTCHAR currency
ENCODING 164
SWIDTH 606 0
DWIDTH 6 0
BBX 6 5 0 1
BITMAP
B4
48
84
48
B4
ENDCHAR

STARTCHAR Itilde
ENCODING 165
SWIDTH 333 0
DWIDTH 4 0
BBX 6 10 0 0
BITMAP
34
58
00
70
20
20
60
40
40
E0
ENDCHAR

STARTCHAR Lcommaaccent
ENCODING 166
SWIDTH 556 0
DWIDTH 6 0
BBX 6 10 0 -3
BITMAP
70
20
20
60
40
44
FC
00
20
40
ENDCHAR

STARTCHAR section
ENCODING 167
SWIDTH 500 0
DWIDTH 5 0
BBX 4 9 1 -2
BITMAP
70
90
40
A0
90
50
20
90
E0
ENDCHAR

STARTCHAR hungarumlaut
ENCODING 168
SWIDTH 333 0
DWIDTH 3 0
BBX 4 2 0 6
BITMAP
50
A0
ENDCHAR

STARTCHAR Scaron
ENCODING 169
SWIDTH 556 0
DWIDTH 6 0
BBX 6 10 0 0
BITMAP
14
08
00
3C
44
40
30
08
88
F0
ENDCHAR

STARTCHAR Emacron
ENCODING 170
SWIDTH 611 0
DWIDTH 6 0
BBX 6 9 0 0
BITMAP
38
00
7C
24
20
78
40
48
F8
ENDCHAR

STARTCHAR Gcommaaccent
ENCODING 171
SWIDTH 722 0
DWIDTH 8 0
BBX 7 10 1 -3
BITMAP
3E
42
80
80
8E
84
78
00
20
40
ENDCHAR

STARTCHAR afii237
ENCODING 172
SWIDTH 556 0
DWIDTH 6 0
BBX 7 7 0 0
BITMAP
FE
92
10
FC
20
20
70
ENDCHAR

STARTCHAR hyphen
ENCODING 173
SWIDTH 333 0
DWIDTH 4 0
BBX 4 1 0 2
BITMAP
F0
ENDCHAR

STARTCHAR Zcaron
ENCODING 174
SWIDTH 667 0
DWIDTH 7 0
BBX 7 10 0 0
BITMAP
14
08
00
7E
44
08
10
20
44
FC
ENDCHAR

STARTCHAR macron
ENCODING 175
SWIDTH 333 0
DWIDTH 3 0
BBX 3 1 1 6
BITMAP
E0
ENDCHAR

STARTCHAR degree
ENCODING 176
SWIDTH 402 0
DWIDTH 4 0
BBX 4 4 0 3
BITMAP
60
90
90
60
ENDCHAR

STARTCHAR aogonek
ENCODING 177
SWIDTH 444 0
DWIDTH 6 0
BBX 6 7 0 -2
BITMAP
34
48
90
B0
58
10
0C
ENDCHAR

STARTCHAR ogonek
ENCODING 178
SWIDTH 333 0
DWIDTH 3 0
BBX 3 2 0 -2
BITMAP
80
60
ENDCHAR

STARTCHAR rcommaaccent
ENCODING 179
SWIDTH 389 0
DWIDTH 4 0
BBX 6 8 0 -3
BITMAP
6C
30
20
40
40
00
40
80
ENDCHAR

STARTCHAR acute
ENCODING 180
SWIDTH 333 0
DWIDTH 3 0
BBX 2 2 2 6
BITMAP
40
80
ENDCHAR

STARTCHAR itilde
ENCODING 181
SWIDTH 278 0
DWIDTH 3 0
BBX 5 8 0 0
BITMAP
68
B0
00
60
20
40
40
60
ENDCHAR

STARTCHAR lcommaaccent
ENCODING 182
SWIDTH 278 0
DWIDTH 3 0
BBX 4 10 0 -3
BITMAP
30
10
20
20
40
40
60
00
40
80
ENDCHAR

STARTCHAR caron
ENCODING 183
SWIDTH 333 0
DWIDTH 3 0
BBX 3 2 1 6
BITMAP
A0
40
ENDCHAR

STARTCHAR commaaccent
ENCODING 184
SWIDTH 333 0
DWIDTH 3 0
BBX 2 2 0 -3
BITMAP
40
80
ENDCHAR

STARTCHAR scaron
ENCODING 185
SWIDTH 389 0
DWIDTH 4 0
BBX 5 8 0 0
BITMAP
28
10
00
38
48
20
90
E0
ENDCHAR

STARTCHAR emacron
ENCODING 186
SWIDTH 389 0
DWIDTH 4 0
BBX 5 7 0 0
BITMAP
38
00
38
48
F0
80
70
ENDCHAR

STARTCHAR gcommaaccent
ENCODING 187
SWIDTH 499 0
DWIDTH 4 0
BBX 5 11 0 -2
BITMAP
10
20
20
00
68
90
90
60
60
90
E0
ENDCHAR

STARTCHAR afii253
ENCODING 188
SWIDTH 278 0
DWIDTH 4 0
BBX 5 7 0 0
BITMAP
10
10
78
20
F0
40
30
ENDCHAR

STARTCHAR afii238
ENCODING 189
SWIDTH 685 0
DWIDTH 7 0
BBX 7 7 0 0
BITMAP
6C
32
22
22
42
44
E8
ENDCHAR

STARTCHAR zcaron
ENCODING 190
SWIDTH 444 0
DWIDTH 5 0
BBX 6 8 0 0
BITMAP
28
10
00
74
88
30
44
B8
ENDCHAR

STARTCHAR afii254
ENCODING 191
SWIDTH 482 0
DWIDTH 6 0
BBX 5 7 0 -2
BITMAP
D8
68
48
88
90
10
60
ENDCHAR

STARTCHAR Amacron
ENCODING 192
SWIDTH 722 0
DWIDTH 7 0
BBX 8 9 -1 0
BITMAP
07
00
02
06
0A
12
3E
42
E7
ENDCHAR

STARTCHAR Aacute
ENCODING 193
SWIDTH 722 0
DWIDTH 7 0
BBX 8 10 -1 0
BITMAP
01
02
00
02
06
0A
12
3E
42
E7
ENDCHAR

STARTCHAR Acircumflex
ENCODING 194
SWIDTH 722 0
DWIDTH 7 0
BBX 8 10 -1 0
BITMAP
02
05
00
02
06
0A
12
3E
42
E7
ENDCHAR

STARTCHAR Atilde
ENCODING 195
SWIDTH 722 0
DWIDTH 7 0
BBX 9 10 -1 0
BITMAP
0680
0B00
0000
0200
0600
0A00
1200
3E00
4200
E700
ENDCHAR

STARTCHAR Adieresis
ENCODING 196
SWIDTH 722 0
DWIDTH 7 0
BBX 8 9 -1 0
BITMAP
05
00
02
06
0A
12
3E
42
E7
ENDCHAR

STARTCHAR Aring
ENCODING 197
SWIDTH 722 0
DWIDTH 7 0
BBX 8 10 -1 0
BITMAP
02
05
02
02
06
0A
12
3E
42
E7
ENDCHAR

STARTCHAR AE
ENCODING 198
SWIDTH 941 0
DWIDTH 9 0
BBX 9 7 0 0
BITMAP
1F80
0C80
1400
1F00
2400
4480
EF80
ENDCHAR

STARTCHAR Iogonek
ENCODING 199
SWIDTH 333 0
DWIDTH 4 0
BBX 4 9 0 -2
BITMAP
70
20
20
60
40
40
E0
40
30
ENDCHAR

STARTCHAR Ccaron
ENCODING 200
SWIDTH 667 0
DWIDTH 7 0
BBX 6 10 1 0
BITMAP
14
08
00
3C
44
80
80
80
88
70
ENDCHAR

STARTCHAR Eacute
ENCODING 201
SWIDTH 611 0
DWIDTH 6 0
BBX 6 10 0 0
BITMAP
08
10
00
7C
24
20
78
40
48
F8
ENDCHAR

STARTCHAR Eogonek
ENCODING 202
SWIDTH 611 0
DWIDTH 6 0
BBX 6 9 0 -2
BITMAP
7C
24
20
78
40
48
F8
20
18
ENDCHAR

STARTCHAR Edieresis
ENCODING 203
SWIDTH 611 0
DWIDTH 6 0
BBX 6 9 0 0
BITMAP
14
00
7C
24
20
78
40
48
F8
ENDCHAR

STARTCHAR Edotaccent
ENCODING 204
SWIDTH 611 0
DWIDTH 6 0
BBX 6 9 0 0
BITMAP
08
00
7C
24
20
78
40
48
F8
ENDCHAR

STARTCHAR Iacute
ENCODING 205
SWIDTH 333 0
DWIDTH 4 0
BBX 4 10 0 0
BITMAP
10
20
00
70
20
20
60
40
40
E0
ENDCHAR

STARTCHAR Icircumflex
ENCODING 206
SWIDTH 333 0
DWIDTH 4 0
BBX 5 10 0 0
BITMAP
10
28
00
70
20
20
60
40
40
E0
ENDCHAR

STARTCHAR Imacron
ENCODING 207
SWIDTH 333 0
DWIDTH 4 0
BBX 5 9 0 0
BITMAP
38
00
70
20
20
60
40
40
E0
ENDCHAR

STARTCHAR Eth
ENCODING 208
SWIDTH 778 0
DWIDTH 8 0
BBX 7 7 0 0
BITMAP
7C
22
22
F2
42
44
F8
ENDCHAR

STARTCHAR Ncommaaccent
ENCODING 209
SWIDTH 778 0
DWIDTH 8 0
BBX 8 10 0 -3
BITMAP
67
22
32
52
4C
44
E4
00
10
20
ENDCHAR

STARTCHAR Omacron
ENCODING 210
SWIDTH 778 0
DWIDTH 8 0
BBX 7 9 1 0
BITMAP
1C
00
3C
42
82
82
82
84
78
ENDCHAR

STARTCHAR Kcommaaccent
ENCODING 211
SWIDTH 667 0
DWIDTH 7 0
BBX 8 10 0 -3
BITMAP
77
24
28
70
48
44
E6
00
10
20
ENDCHAR

STARTCHAR Ocircumflex
ENCODING 212
SWIDTH 778 0
DWIDTH 8 0
BBX 7 10 1 0
BITMAP
08
14
00
3C
42
82
82
82
84
78
ENDCHAR

STARTCHAR Otilde
ENCODING 213
SWIDTH 778 0
DWIDTH 8 0
BBX 7 10 1 0
BITMAP
1A
2C
00
3C
42
82
82
82
84
78
ENDCHAR

STARTCHAR Odieresis
ENCODING 214
SWIDTH 778 0
DWIDTH 8 0
BBX 7 9 1 0
BITMAP
14
00
3C
42
82
82
82
84
78
ENDCHAR

STARTCHAR multiply
ENCODING 215
SWIDTH 606 0
DWIDTH 6 0
BBX 4 4 1 1
BITMAP
90
60
60
90
ENDCHAR

STARTCHAR Oslash
ENCODING 216
SWIDTH 778 0
DWIDTH 8 0
BBX 7 7 1 0
BITMAP
3E
44
8A
92
A2
44
F8
ENDCHAR

STARTCHAR Uogonek
ENCODING 217
SWIDTH 778 0
DWIDTH 8 0
BBX 7 9 1 -2
BITMAP
CE
44
44
CC
88
98
6C
08
06
ENDCHAR

STARTCHAR Uacute
ENCODING 218
SWIDTH 778 0
DWIDTH 8 0
BBX 7 10 1 0
BITMAP
08
10
00
CE
44
44
CC
88
98
6C
ENDCHAR

STARTCHAR Ucircumflex
ENCODING 219
SWIDTH 778 0
DWIDTH 8 0
BBX 7 10 1 0
BITMAP
10
28
00
CE
44
44
CC
88
98
6C
ENDCHAR

STARTCHAR Udieresis
ENCODING 220
SWIDTH 778 0
DWIDTH 8 0
BBX 7 9 1 0
BITMAP
28
00
CE
44
44
CC
88
98
6C
ENDCHAR

STARTCHAR Utilde
ENCODING 221
SWIDTH 778 0
DWIDTH 8 0
BBX 7 10 1 0
BITMAP
1A
2C
00
CE
44
44
CC
88
98
6C
ENDCHAR

STARTCHAR Umacron
ENCODING 222
SWIDTH 778 0
DWIDTH 8 0
BBX 7 9 1 0
BITMAP
38
00
CE
44
44
CC
88
98
6C
ENDCHAR

STARTCHAR germandbls
ENCODING 223
SWIDTH 500 0
DWIDTH 6 0
BBX 7 9 -2 -2
BITMAP
0C
12
32
14
12
12
14
20
C0
ENDCHAR

STARTCHAR amacron
ENCODING 224
SWIDTH 444 0
DWIDTH 6 0
BBX 6 7 1 0
BITMAP
1C
00
34
48
90
B0
58
ENDCHAR

STARTCHAR aacute
ENCODING 225
SWIDTH 444 0
DWIDTH 6 0
BBX 6 8 1 0
BITMAP
08
10
00
34
48
90
B0
58
ENDCHAR

STARTCHAR acircumflex
ENCODING 226
SWIDTH 444 0
DWIDTH 6 0
BBX 6 8 1 0
BITMAP
10
28
00
34
48
90
B0
58
ENDCHAR

STARTCHAR atilde
ENCODING 227
SWIDTH 444 0
DWIDTH 6 0
BBX 7 8 1 0
BITMAP
1A
2C
00
34
48
90
B0
58
ENDCHAR

STARTCHAR adieresis
ENCODING 228
SWIDTH 444 0
DWIDTH 6 0
BBX 6 7 1 0
BITMAP
28
00
34
48
90
B0
58
ENDCHAR

STARTCHAR aring
ENCODING 229
SWIDTH 444 0
DWIDTH 6 0
BBX 6 9 1 0
BITMAP
10
28
10
00
34
48
90
B0
58
ENDCHAR

STARTCHAR ae
ENCODING 230
SWIDTH 638 0
DWIDTH 6 0
BBX 6 5 0 0
BITMAP
6C
14
78
A0
DC
ENDCHAR

STARTCHAR iogonek
ENCODING 231
SWIDTH 278 0
DWIDTH 3 0
BBX 3 9 1 -2
BITMAP
60
00
C0
40
80
80
C0
80
60
ENDCHAR

STARTCHAR ccaron
ENCODING 232
SWIDTH 407 0
DWIDTH 5 0
BBX 5 8 1 0
BITMAP
28
10
00
38
48
80
90
60
ENDCHAR

STARTCHAR eacute
ENCODING 233
SWIDTH 389 0
DWIDTH 4 0
BBX 5 8 0 0
BITMAP
08
10
00
38
48
F0
80
70
ENDCHAR

STARTCHAR eogonek
ENCODING 234
SWIDTH 389 0
DWIDTH 4 0
BBX 5 7 0 -2
BITMAP
38
48
F0
80
70
40
30
ENDCHAR

STARTCHAR edieresis
ENCODING 235
SWIDTH 389 0
DWIDTH 4 0
BBX 5 7 0 0
BITMAP
28
00
38
48
F0
80
70
ENDCHAR

STARTCHAR edotaccent
ENCODING 236
SWIDTH 389 0
DWIDTH 4 0
BBX 5 7 0 0
BITMAP
10
00
38
48
F0
80
70
ENDCHAR

STARTCHAR iacute
ENCODING 237
SWIDTH 278 0
DWIDTH 3 0
BBX 3 8 1 0
BITMAP
20
40
00
C0
40
80
80
C0
ENDCHAR

STARTCHAR icircumflex
ENCODING 238
SWIDTH 278 0
DWIDTH 3 0
BBX 3 8 1 0
BITMAP
40
A0
00
C0
40
80
80
C0
ENDCHAR

STARTCHAR imacron
ENCODING 239
SWIDTH 278 0
DWIDTH 3 0
BBX 3 7 1 0
BITMAP
E0
00
C0
40
80
80
C0
ENDCHAR

STARTCHAR dcroat
ENCODING 240
SWIDTH 500 0
DWIDTH 5 0
BBX 6 7 1 0
BITMAP
1C
08
68
90
90
A0
70
ENDCHAR

STARTCHAR ncommaaccent
ENCODING 241
SWIDTH 556 0
DWIDTH 6 0
BBX 5 8 1 -3
BITMAP
D8
68
48
90
98
00
20
40
ENDCHAR

STARTCHAR omacron
ENCODING 242
SWIDTH 444 0
DWIDTH 6 0
BBX 5 7 1 0
BITMAP
38
00
30
48
88
90
60
ENDCHAR

STARTCHAR kcommaaccent
ENCODING 243
SWIDTH 444 0
DWIDTH 5 0
BBX 6 10 0 -3
BITMAP
60
20
4C
50
60
90
98
00
20
40
ENDCHAR

STARTCHAR ocircumflex
ENCODING 244
SWIDTH 444 0
DWIDTH 6 0
BBX 5 8 1 0
BITMAP
10
28
00
30
48
88
90
60
ENDCHAR

STARTCHAR otilde
ENCODING 245
SWIDTH 444 0
DWIDTH 6 0
BBX 6 8 1 0
BITMAP
34
58
00
30
48
88
90
60
ENDCHAR

STARTCHAR odieresis
ENCODING 246
SWIDTH 444 0
DWIDTH 6 0
BBX 5 7 1 0
BITMAP
28
00
30
48
88
90
60
ENDCHAR

STARTCHAR divide
ENCODING 247
SWIDTH 606 0
DWIDTH 6 0
BBX 5 5 1 1
BITMAP
20
00
F8
00
20
ENDCHAR

STARTCHAR oslash
ENCODING 248
SWIDTH 444 0
DWIDTH 6 0
BBX 5 5 1 0
BITMAP
38
58
A8
D0
E0
ENDCHAR

STARTCHAR uogonek
ENCODING 249
SWIDTH 556 0
DWIDTH 6 0
BBX 6 7 1 -2
BITMAP
C8
48
90
B0
D8
10
0C
ENDCHAR

STARTCHAR uacute
ENCODING 250
SWIDTH 556 0
DWIDTH 6 0
BBX 5 8 1 0
BITMAP
10
20
00
C8
48
90
B0
D8
ENDCHAR

STARTCHAR ucircumflex
ENCODING 251
SWIDTH 556 0
DWIDTH 6 0
BBX 5 8 1 0
BITMAP
10
28
00
C8
48
90
B0
D8
ENDCHAR

STARTCHAR udieresis
ENCODING 252
SWIDTH 556 0
DWIDTH 6 0
BBX 5 7 1 0
BITMAP
28
00
C8
48
90
B0
D8
ENDCHAR

STARTCHAR utilde
ENCODING 253
SWIDTH 556 0
DWIDTH 6 0
BBX 6 8 1 0
BITMAP
34
58
00
C8
48
90
B0
D8
ENDCHAR

STARTCHAR umacron
ENCODING 254
SWIDTH 556 0
DWIDTH 6 0
BBX 5 7 1 0
BITMAP
38
00
C8
48
90
B0
D8
ENDCHAR

STARTCHAR dotaccent
ENCODING 255
SWIDTH 333 0
DWIDTH 3 0
BBX 1 1 1 6
BITMAP
80
ENDCHAR
ENDFONT
